HIERARCHY
ROOT Hips
{
	OFFSET 0.000000 0.000000 0.000000 
	CHANNELS 6 Xposition Yposition Zposition Yrotation Zrotation Xrotation 
	JOINT Lumbar
	{
		OFFSET 0.000000 0.000000 0.000000 
		CHANNELS 3 Zrotation Xrotation Yrotation
		JOINT Neck
		{
			OFFSET 0.000000 0.445665 0.000000 
			CHANNELS 3 Zrotation Xrotation Yrotation
			End Site
			{
				OFFSET 0.000000 0.227535 0.000000 
			}
		}
		JOINT RightShoulder
		{
			OFFSET 0.019635 0.377685 0.194865 
			CHANNELS 3 Zrotation Xrotation Yrotation
			JOINT RightElbow
			{
				OFFSET 0.000000 -0.243375 0.000000 
				CHANNELS 2 Zrotation Yrotation
				JOINT RightWrist
				{
					OFFSET 0.000000 -0.264825 0.000000 
					CHANNELS 2 Zrotation Xrotation
					End Site
					{
						OFFSET 0.006600 -0.176220 0.000990 
					}
				}
			}
		}
		JOINT LeftShoulder
		{
			OFFSET 0.019635 0.377685 -0.194865 
			CHANNELS 3 Zrotation Xrotation Yrotation
			JOINT LeftElbow
			{
				OFFSET 0.000000 -0.243375 0.000000 
				CHANNELS 2 Zrotation Yrotation
				JOINT LeftWrist
				{
					OFFSET 0.000000 -0.264825 0.000000 
					CHANNELS 2 Zrotation Xrotation
					End Site
					{
						OFFSET 0.006600 -0.176220 -0.000990 
					}
				}
			}
		}
	}
	JOINT RightHip
	{
		OFFSET 0.052140 -0.069960 0.075570 
		CHANNELS 3 Zrotation Xrotation Yrotation
		JOINT RightKnee
		{
			OFFSET 0.000000 -0.402270 0.000000 
			CHANNELS 1 Zrotation
			JOINT RightAnkle
			{
				OFFSET 0.000000 -0.404085 0.000000 
				CHANNELS 3 Zrotation Xrotation Yrotation
				End Site
				{
					OFFSET 0.204105 -0.089430 0.008415 
				}
			}
		}
	}
	JOINT LeftHip
	{
		OFFSET 0.052140 -0.069960 -0.075570 
		CHANNELS 3 Zrotation Xrotation Yrotation
		JOINT LeftKnee
		{
			OFFSET 0.000000 -0.402270 0.000000 
			CHANNELS 1 Zrotation
			JOINT LeftAnkle
			{
				OFFSET 0.000000 -0.404085 0.000000 
				CHANNELS 3 Zrotation Xrotation Yrotation
				End Site
				{
					OFFSET 0.204105 -0.089430 -0.008415 
				}
			}
		}
	}
}
MOTION
Frames: 14
Frame Time: 0.02
0.70442 -0.29644 0.18511 537.08254 -17.56986 -2.59757 19.43416 3.24635 -5.58335 -13.72028 7.1126 -2.11994 0.29434 -20.28996 1.01437 115.51636 73.71679 -8.0712 1.9783 -19.24434 12.46804 1.80511 106.49783 -83.75568 0.64263 0.50494 88.81885 -8.48758 -12.18389 -75.79153 -7.76656 -2.8558 -3.67381 92.34585 5.22954 5.98604 -76.42574 -9.25652 2.36433 3.50933
0.70457 -0.29673 0.18496 537.06203 -17.20407 -2.57572 19.80968 3.20734 -5.63775 -14.07075 6.87566 -2.11994 -0.6795 -19.4239 1.07491 115.43404 73.75815 -8.23741 2.21034 -19.65061 12.18303 2.01073 106.34029 -84.07492 0.68412 0.17068 88.46124 -8.40378 -12.08435 -75.89898 -7.70308 -2.79594 -3.6411 91.95889 5.23611 5.91707 -76.38385 -9.33535 2.31158 3.48806
0.70466 -0.29701 0.18478 537.03515 -16.85314 -2.5554 20.17959 3.16859 -5.67767 -14.4451 6.64512 -2.11994 -1.53746 -18.5725 1.16388 115.30007 73.84576 -8.42911 2.49316 -20.06762 11.90127 2.20739 106.18526 -84.95264 0.7731 -0.60592 88.12442 -8.27787 -11.94363 -75.99473 -7.65586 -2.72543 -3.60425 91.58045 5.23361 5.83777 -76.30833 -9.45153 2.25872 3.46912
0.70479 -0.29729 0.18461 537.01252 -16.49608 -2.53517 20.54638 3.13022 -5.72314 -14.80568 6.41569 -2.11994 -2.44247 -17.7186 1.23277 115.18952 73.93776 -8.59972 2.71779 -20.47397 11.62179 2.4038 106.0263 -85.53334 0.83422 -1.15236 87.77908 -8.16929 -11.82107 -76.08767 -7.60723 -2.66152 -3.57047 91.19896 5.23366 5.76481 -76.24202 -9.55665 2.20671 3.44975
0.70487 -0.29756 0.18443 536.9842 -16.13718 -2.51154 20.93818 3.08976 -5.77321 -15.18112 6.16819 -2.11994 -3.36636 -16.84732 1.33724 115.07705 73.93083 -8.80879 3.0845 -20.90481 11.32655 2.61788 105.87705 -86.27091 0.91894 -1.81259 87.43033 -8.06963 -11.70236 -76.21497 -7.53361 -2.58964 -3.5314 90.81401 5.24154 5.68705 -76.19798 -9.64055 2.1503 3.42741
0.70502 -0.29786 0.18427 536.96615 -15.78557 -2.49545 21.27548 3.05386 -5.81003 -15.52967 5.96068 -2.11994 -4.22581 -16.01571 1.37148 114.95781 74.13054 -8.94622 3.17496 -21.28673 11.06465 2.79293 105.70918 -86.82405 0.96722 -2.34342 87.09341 -7.94208 -11.56715 -76.26798 -7.51549 -2.53207 -3.50245 90.43855 5.2297 5.61509 -76.10139 -9.77525 2.10364 3.412
0.70535 -0.29823 0.18418 536.97859 -15.44766 -2.49898 21.47184 3.02858 -5.81554 -15.80596 5.85716 -2.11994 -4.92751 -15.28992 1.21545 114.8236 74.98072 -8.85691 2.42396 -21.53645 10.89678 2.8664 105.48713 -86.73405 0.89944 -2.42356 86.78445 -7.73331 -11.37325 -76.11764 -7.65046 -2.51636 -3.50261 90.08407 5.17631 5.57413 -75.86118 -10.05124 2.08122 3.41436
0.70575 -0.29863 0.18412 537.00148 -15.11707 -2.51019 21.61198 3.00818 -5.80796 -16.05259 5.79469 -2.11994 -5.56965 -14.60387 0.98548 114.68583 76.02169 -8.69836 1.4048 -21.73584 10.76196 2.90034 105.24724 -86.44298 0.79444 -2.35875 86.48662 -7.50033 -11.16803 -75.89313 -7.83996 -2.51553 -3.51311 89.73949 5.10192 5.53757 -75.57086 -10.37472 2.06916 3.42378
0.70612 -0.29901 0.18405 537.01919 -14.78461 -2.51842 21.77241 2.98684 -5.80515 -16.30746 5.71672 -2.11994 -6.24604 -13.89931 0.78138 114.55627 76.91363 -8.58692 0.55285 -21.95441 10.61005 2.94986 105.01683 -86.24499 0.70932 -2.34971 86.18324 -7.2875 -10.98259 -75.70319 -8.00212 -2.50814 -3.51882 89.39226 5.02939 5.48982 -75.3083 -10.66945 2.05433 3.4306
0.70647 -0.2994 0.18395 537.03846 -14.44592 -2.52458 21.9548 2.96027 -5.80654 -16.58555 5.62561 -2.11994 -6.89135 -13.19588 0.60969 114.39871 78.06425 -8.4122 -0.48559 -22.18794 10.46649 3.00893 104.77942 -86.05612 0.61319 -2.39102 85.88226 -7.0344 -10.73374 -75.50908 -8.17598 -2.49955 -3.52475 89.03714 4.98667 5.47778 -75.02352 -10.99595 2.03161 3.43509
0.70687 -0.29978 0.18392 537.05711 -14.12251 -2.53684 22.07828 2.94557 -5.79659 -16.80762 5.57157 -2.11994 -7.58456 -12.50097 0.35417 114.29722 78.72839 -8.35014 -1.20393 -22.37945 10.31397 3.03906 104.55392 -85.79672 0.53065 -2.29679 85.57918 -6.86026 -10.6151 -75.30633 -8.33782 -2.49712 -3.53273 88.7012 4.8799 5.39599 -74.77348 -11.26684 2.02741 3.44589
0.70741 -0.30016 0.18411 537.07088 -13.83278 -2.56414 22.05156 2.96403 -5.75578 -16.88461 5.60934 -2.11994 -8.4611 -11.80625 -0.12888 114.36966 77.93785 -8.63602 -0.93882 -22.45594 10.1234 2.99707 104.35143 -85.36156 0.49395 -1.77741 85.263 -6.90728 -10.85553 -75.09697 -8.45624 -2.50834 -3.54406 88.41128 4.57597 5.09012 -74.63283 -11.37406 2.07508 3.47409
0.70801 -0.30053 0.18436 537.08379 -13.55931 -2.59727 21.96767 2.99397 -5.7046 -16.90571 5.68301 -2.11994 -9.38149 -11.12155 -0.69114 114.49557 76.66369 -9.03359 -0.34911 -22.4934 9.92372 2.92768 104.16374 -84.86563 0.4723 -1.13825 84.94513 -7.03493 -11.22767 -74.88178 -8.56005 -2.52531 -3.55711 88.14114 4.21271 4.7191 -74.52893 -11.4232 2.14045 3.50811
0.70857 -0.3009 0.18458 537.09751 -13.28273 -2.6277 21.91091 3.01763 -5.66 -16.95069 5.74061 -2.11994 -10.25873 -10.44065 -1.20819 114.58521 75.65219 -9.36715 0.06975 -22.55677 9.73151 2.87212 103.97913 -84.41408 0.44381 -0.61124 84.63084 -7.12822 -11.54249 -74.66979 -8.66841 -2.53945 -3.56921 87.86487 3.89388 4.3986 -74.40747 -11.49772 2.19555 3.53834
